<svg version="1.1" xmlns="http://www.w3.org/2000/svg" xmlns:xlink="http://www.w3.org/1999/xlink" viewBox="0 0 172 172"><g fill="none" fill-rule="nonzero" stroke="none" stroke-width="1" stroke-linecap="butt" stroke-linejoin="miter" stroke-miterlimit="10" stroke-dasharray="" stroke-dashoffset="0" font-family="none" font-weight="none" font-size="none" text-anchor="none" style="mix-blend-mode: normal"><path d="M0,172v-172h172v172z" fill="none"></path><g fill="#ecf0f1"><path d="M67.99017,112.875c0,2.967 -2.40442,5.375 -5.375,5.375c-2.97058,0 -5.375,-2.408 -5.375,-5.375v-50.16667c0,-2.33992 1.51575,-4.41108 3.74458,-5.12417c2.23958,-0.7095 4.6655,0.1075 6.01642,2.01742l60.11758,84.93933c18.4255,-13.00033 30.54792,-34.40717 30.54792,-58.54092c0,-39.41667 -32.25,-71.66667 -71.66667,-71.66667c-39.41667,0 -71.66667,32.25 -71.66667,71.66667c0,39.41667 32.25,71.66667 71.66667,71.66667c11.438,0 22.23817,-2.78425 31.85583,-7.60383l-49.86567,-70.4555zM103.8235,59.125c0,-2.967 2.40442,-5.375 5.375,-5.375c2.97058,0 5.375,2.408 5.375,5.375v49.59333l-10.75,-15.14675z"></path></g></g></svg>