<svg width="64" height="64" viewBox="0 0 64 64" fill="none" xmlns="http://www.w3.org/2000/svg">
<circle cx="32" cy="32" r="32" fill="#050505"/>
<path d="M37.56 13.2H42.2V21.28H37.56V13.2ZM29.76 18.64H50.4V26.92H46V22.76H34V26.92H29.76V18.64ZM32.72 25.68H37.16V43.68C37.16 45.36 37.44 45.6 39.2 45.6C40 45.6 43.56 45.6 44.52 45.6C46.12 45.6 46.4 44.76 46.64 40.2C47.6 40.92 49.44 41.68 50.68 41.92C50.16 48 48.92 49.8 44.88 49.8C43.84 49.8 39.64 49.8 38.64 49.8C33.96 49.8 32.72 48.4 32.72 43.72V25.68ZM46.04 28.2L49.12 31.96C45.2 34.16 40.12 36.08 35.68 37.56C35.44 36.52 34.72 35 34.16 34C38.4 32.52 43.04 30.2 46.04 28.2ZM19.48 13.56H23.6V22.96H19.48V13.56ZM16.68 20.52H28.84V35.56H16.68V31.72H25.28V24.32H16.68V20.52ZM14.24 20.52H17.8V37.4H14.24V20.52ZM19.88 22.12H23.12V33.68H23.56V44.16H19.44V33.68H19.88V22.12ZM13.12 43.8C16.96 43.36 22.68 42.52 28.2 41.72L28.44 45.8C23.32 46.76 17.92 47.68 13.8 48.4L13.12 43.8ZM24.96 38.24L28.48 37.2C29.72 40.56 30.88 44.8 31.2 47.68L27.44 48.88C27.2 46 26.16 41.56 24.96 38.24Z" fill="url(#paint0_linear_101_3)"/>
<defs>
<linearGradient id="paint0_linear_101_3" x1="52" y1="50.5" x2="16.5" y2="15.5" gradientUnits="userSpaceOnUse">
<stop stop-color="#C53030"/>
<stop offset="1" stop-color="#FF8A4D"/>
</linearGradient>
</defs>
</svg>
